# xmcd CD database file
#
# Track frame offsets:
#	150
#	28705
#	38438
#	56755
#	75638
#	94465
#	107470
#	124308
#	144540
#	160805
#	176845
#	196540
#
# Disc length: 2801 seconds
#
# Revision: 3
# Processed by: cddbd v1.5.2PL0 Copyright (c) Steve Scherf et al.
# Submitted via: CDex 1.70beta2
#
DISCID=990aef0c
DTITLE=Dubliners - Fifteen Years On  [CD 2)
DYEAR=1993
DGENRE=Irish Folk
TTITLE0=The Town That I Loved So Well
TTITLE1=Salamanca
TTITLE2=Spancil Hill
TTITLE3=McAlpine's Fusiliers
TTITLE4=Boulavogue
TTITLE5=The Old Triangle
TTITLE6=Spanish Lady
TTITLE7=O'Carolans Devotion
TTITLE8=Thirty Foot Trailer
TTITLE9=Down By The Glenside
TTITLE10=Fiddlers Green
TTITLE11=Molly Malone
EXTD=YEAR: 1993
EXTT0=
EXTT1=
EXTT2=
EXTT3=
EXTT4=
EXTT5=
EXTT6=
EXTT7=
EXTT8=
EXTT9=
EXTT10=
EXTT11=
PLAYORDER=
